<svg xmlns="http://www.w3.org/2000/svg" viewBox="0 0 64 64">
  <defs>
    <linearGradient id="bg" x1="8%" y1="6%" x2="92%" y2="94%">
      <stop offset="0%" stop-color="#0f2f6b"/>
      <stop offset="55%" stop-color="#124d8a"/>
      <stop offset="100%" stop-color="#0f766e"/>
    </linearGradient>
    <linearGradient id="seal" x1="0%" y1="0%" x2="100%" y2="100%">
      <stop offset="0%" stop-color="#ffe08a"/>
      <stop offset="100%" stop-color="#e0a92d"/>
    </linearGradient>
  </defs>
  <rect width="64" height="64" rx="18" fill="url(#bg)"/>
  <path d="M19 15.5h20l6 6v18a5.5 5.5 0 0 1-5.5 5.5h-20A5.5 5.5 0 0 1 14 39.5V21a5.5 5.5 0 0 1 5-5.5Z" fill="#ffffff" opacity=".96"/>
  <path d="M39 15.5v7a2.5 2.5 0 0 0 2.5 2.5h7z" fill="#dbeafe"/>
  <path d="M21 27h17" stroke="#1d4f91" stroke-width="3" stroke-linecap="round"/>
  <path d="M21 33h12" stroke="#2b6aa8" stroke-width="3" stroke-linecap="round"/>
  <circle cx="43" cy="43" r="9" fill="url(#seal)"/>
  <path d="m39.5 43.2 2.3 2.5 4.8-5.3" fill="none" stroke="#0f2f6b" stroke-width="2.8" stroke-linecap="round" stroke-linejoin="round"/>
</svg>
