<svg xmlns="http://www.w3.org/2000/svg" viewBox="0 0 192 192">
  <defs>
    <linearGradient id="bg" x1="8%" y1="6%" x2="92%" y2="94%">
      <stop offset="0%" stop-color="#0f2f6b"/>
      <stop offset="55%" stop-color="#124d8a"/>
      <stop offset="100%" stop-color="#0f766e"/>
    </linearGradient>
    <linearGradient id="seal" x1="0%" y1="0%" x2="100%" y2="100%">
      <stop offset="0%" stop-color="#ffe08a"/>
      <stop offset="100%" stop-color="#e0a92d"/>
    </linearGradient>
  </defs>
  <rect width="192" height="192" rx="48" fill="url(#bg)"/>
  <path d="M56 40h58l22 22v58c0 13.255-10.745 24-24 24H56c-13.255 0-24-10.745-24-24V64c0-13.255 10.745-24 24-24Z" fill="#fff" opacity=".97"/>
  <path d="M114 40v24c0 7.732 6.268 14 14 14h24z" fill="#dbeafe"/>
  <path d="M62 78h56" stroke="#1d4f91" stroke-width="8" stroke-linecap="round"/>
  <path d="M62 98h40" stroke="#2b6aa8" stroke-width="8" stroke-linecap="round"/>
  <path d="M62 118h28" stroke="#76a7d8" stroke-width="8" stroke-linecap="round"/>
  <circle cx="130" cy="130" r="27" fill="url(#seal)"/>
  <path d="m119 131 8 8 15-18" fill="none" stroke="#0f2f6b" stroke-width="8" stroke-linecap="round" stroke-linejoin="round"/>
</svg>
