<svg xmlns="http://www.w3.org/2000/svg" width="760" height="420" viewBox="0 0 760 420">
  <rect width="760" height="420" fill="#ffffff"/>
  <line x1="210" y1="300" x2="210" y2="120" stroke="#222222" stroke-width="4"/>
  <polygon points="210,92 198,122 222,122" fill="#222222"/>
  <circle cx="210" cy="300" r="7" fill="#222222"/>
  <text x="170" y="318" font-family="Times New Roman, serif" font-size="28" font-style="italic" fill="#222222">A</text>
  <text x="112" y="175" font-family="Times New Roman, serif" font-size="28" fill="#222222">8 m/s</text>

  <line x1="500" y1="82" x2="500" y2="360" stroke="#222222" stroke-width="4"/>
  <line x1="500" y1="82" x2="518" y2="100" stroke="#222222" stroke-width="3"/>
  <line x1="500" y1="102" x2="518" y2="120" stroke="#222222" stroke-width="3"/>
  <line x1="500" y1="122" x2="518" y2="140" stroke="#222222" stroke-width="3"/>
  <line x1="500" y1="142" x2="518" y2="160" stroke="#222222" stroke-width="3"/>
  <line x1="500" y1="162" x2="518" y2="180" stroke="#222222" stroke-width="3"/>
  <line x1="500" y1="182" x2="518" y2="200" stroke="#222222" stroke-width="3"/>
  <line x1="500" y1="202" x2="518" y2="220" stroke="#222222" stroke-width="3"/>
  <line x1="500" y1="222" x2="518" y2="240" stroke="#222222" stroke-width="3"/>
  <line x1="500" y1="242" x2="518" y2="260" stroke="#222222" stroke-width="3"/>
  <line x1="500" y1="262" x2="518" y2="280" stroke="#222222" stroke-width="3"/>
  <line x1="500" y1="282" x2="518" y2="300" stroke="#222222" stroke-width="3"/>
  <line x1="500" y1="302" x2="518" y2="320" stroke="#222222" stroke-width="3"/>
  <line x1="500" y1="322" x2="518" y2="340" stroke="#222222" stroke-width="3"/>
  <line x1="500" y1="342" x2="518" y2="360" stroke="#222222" stroke-width="3"/>

  <line x1="462" y1="235" x2="412" y2="235" stroke="#222222" stroke-width="4"/>
  <polygon points="388,235 416,223 416,247" fill="#222222"/>
  <text x="394" y="208" font-family="Times New Roman, serif" font-size="28" fill="#222222">3 m/s</text>

  <text x="526" y="100" font-family="Times New Roman, serif" font-size="30" font-style="italic" fill="#222222">M</text>
  <text x="526" y="354" font-family="Times New Roman, serif" font-size="30" font-style="italic" fill="#222222">N</text>
</svg>
